<svg width="600" height="340" viewBox="0 0 600 340" xmlns="http://www.w3.org/2000/svg" style="background:#0f172a;border-radius:12px">
<defs>
<linearGradient id="mp-accent" x1="0" y1="0" x2="1" y2="0">
<stop offset="0%" stop-color="#6366f1"/>
<stop offset="100%" stop-color="#8b5cf6"/>
</linearGradient>
</defs>
<text x="300" y="32" text-anchor="middle" font-family="system-ui,sans-serif" font-size="13" font-weight="600" fill="#94a3b8" letter-spacing="2">ARCHITECTURE</text>
<rect x="230" y="50" width="140" height="38" rx="6" fill="#1e293b" stroke="#334155" stroke-width="0.75"/>
<text x="300" y="74" text-anchor="middle" font-family="system-ui,sans-serif" font-size="12" font-weight="500" fill="#e2e8f0">React Native App</text>
<text x="300" y="58" text-anchor="middle" font-family="system-ui,sans-serif" font-size="9" fill="#64748b">iOS / Android</text>
<line x1="300" y1="88" x2="300" y2="110" stroke="#475569" stroke-width="1"/>
<rect x="190" y="110" width="220" height="34" rx="6" fill="#1e293b" stroke="url(#mp-accent)" stroke-width="0.75"/>
<text x="300" y="131" text-anchor="middle" font-family="system-ui,sans-serif" font-size="12" font-weight="500" fill="#c4b5fd">Vercel (Hosting + Edge Functions)</text>
<line x1="200" y1="144" x2="120" y2="180" stroke="#475569" stroke-width="1"/>
<line x1="300" y1="144" x2="300" y2="180" stroke="#475569" stroke-width="1"/>
<line x1="400" y1="144" x2="480" y2="180" stroke="#475569" stroke-width="1"/>
<rect x="40" y="180" width="160" height="70" rx="6" fill="#1e293b" stroke="#334155" stroke-width="0.75"/>
<text x="120" y="200" text-anchor="middle" font-family="system-ui,sans-serif" font-size="11" font-weight="600" fill="#34d399">Supabase</text>
<text x="120" y="216" text-anchor="middle" font-family="system-ui,sans-serif" font-size="10" fill="#94a3b8">PostgreSQL</text>
<text x="120" y="230" text-anchor="middle" font-family="system-ui,sans-serif" font-size="10" fill="#94a3b8">Auth + Storage</text>
<text x="120" y="244" text-anchor="middle" font-family="system-ui,sans-serif" font-size="10" fill="#94a3b8">Realtime</text>
<rect x="220" y="180" width="160" height="70" rx="6" fill="#1e293b" stroke="#334155" stroke-width="0.75"/>
<text x="300" y="200" text-anchor="middle" font-family="system-ui,sans-serif" font-size="11" font-weight="600" fill="#fbbf24">RevenueCat</text>
<text x="300" y="216" text-anchor="middle" font-family="system-ui,sans-serif" font-size="10" fill="#94a3b8">Subscriptions</text>
<text x="300" y="230" text-anchor="middle" font-family="system-ui,sans-serif" font-size="10" fill="#94a3b8">In-App Purchases</text>
<text x="300" y="244" text-anchor="middle" font-family="system-ui,sans-serif" font-size="10" fill="#94a3b8">120+ Countries</text>
<rect x="400" y="180" width="160" height="70" rx="6" fill="#1e293b" stroke="#334155" stroke-width="0.75"/>
<text x="480" y="200" text-anchor="middle" font-family="system-ui,sans-serif" font-size="11" font-weight="600" fill="#f472b6">AI APIs</text>
<text x="480" y="216" text-anchor="middle" font-family="system-ui,sans-serif" font-size="10" fill="#94a3b8">OpenAI (GPT)</text>
<text x="480" y="230" text-anchor="middle" font-family="system-ui,sans-serif" font-size="10" fill="#94a3b8">Anthropic (Claude)</text>
<text x="480" y="244" text-anchor="middle" font-family="system-ui,sans-serif" font-size="10" fill="#94a3b8">Meme Generation</text>
<line x1="120" y1="250" x2="120" y2="280" stroke="#475569" stroke-width="1"/>
<line x1="300" y1="250" x2="300" y2="280" stroke="#475569" stroke-width="1"/>
<line x1="480" y1="250" x2="480" y2="280" stroke="#475569" stroke-width="1"/>
<rect x="40" y="280" width="160" height="34" rx="6" fill="#0f172a" stroke="#334155" stroke-width="0.5" stroke-dasharray="4 3"/>
<text x="120" y="301" text-anchor="middle" font-family="system-ui,sans-serif" font-size="10" fill="#64748b">User Data + Profiles</text>
<rect x="220" y="280" width="160" height="34" rx="6" fill="#0f172a" stroke="#334155" stroke-width="0.5" stroke-dasharray="4 3"/>
<text x="300" y="301" text-anchor="middle" font-family="system-ui,sans-serif" font-size="10" fill="#64748b">Payment Processing</text>
<rect x="400" y="280" width="160" height="34" rx="6" fill="#0f172a" stroke="#334155" stroke-width="0.5" stroke-dasharray="4 3"/>
<text x="480" y="301" text-anchor="middle" font-family="system-ui,sans-serif" font-size="10" fill="#64748b">Content Generation</text>
</svg>