<svg width="600" height="340" viewBox="0 0 600 340" xmlns="http://www.w3.org/2000/svg" style="background:#0f172a;border-radius:12px">
<defs>
<linearGradient id="pb-accent" x1="0" y1="0" x2="1" y2="0">
<stop offset="0%" stop-color="#f59e0b"/>
<stop offset="100%" stop-color="#f97316"/>
</linearGradient>
</defs>
<text x="300" y="32" text-anchor="middle" font-family="system-ui,sans-serif" font-size="13" font-weight="600" fill="#94a3b8" letter-spacing="2">ARCHITECTURE</text>
<rect x="230" y="50" width="140" height="38" rx="6" fill="#1e293b" stroke="#334155" stroke-width="0.75"/>
<text x="300" y="63" text-anchor="middle" font-family="system-ui,sans-serif" font-size="9" fill="#64748b">Browser</text>
<text x="300" y="78" text-anchor="middle" font-family="system-ui,sans-serif" font-size="12" font-weight="500" fill="#e2e8f0">Student</text>
<line x1="300" y1="88" x2="300" y2="110" stroke="#475569" stroke-width="1"/>
<rect x="190" y="110" width="100" height="30" rx="6" fill="#1e293b" stroke="url(#pb-accent)" stroke-width="0.75"/>
<text x="240" y="129" text-anchor="middle" font-family="system-ui,sans-serif" font-size="11" font-weight="500" fill="#fbbf24">Route 53</text>
<rect x="310" y="110" width="100" height="30" rx="6" fill="#1e293b" stroke="url(#pb-accent)" stroke-width="0.75"/>
<text x="360" y="129" text-anchor="middle" font-family="system-ui,sans-serif" font-size="11" font-weight="500" fill="#fbbf24">CloudFront</text>
<line x1="240" y1="140" x2="240" y2="144" stroke="#475569" stroke-width="1"/>
<line x1="240" y1="144" x2="360" y2="144" stroke="#475569" stroke-width="1"/>
<line x1="360" y1="140" x2="360" y2="144" stroke="#475569" stroke-width="1"/>
<line x1="300" y1="144" x2="300" y2="170" stroke="#475569" stroke-width="1"/>
<line x1="180" y1="170" x2="420" y2="170" stroke="#475569" stroke-width="1"/>
<line x1="180" y1="170" x2="180" y2="190" stroke="#475569" stroke-width="1"/>
<line x1="300" y1="170" x2="300" y2="190" stroke="#475569" stroke-width="1"/>
<line x1="420" y1="170" x2="420" y2="190" stroke="#475569" stroke-width="1"/>
<rect x="100" y="190" width="160" height="34" rx="6" fill="#1e293b" stroke="#334155" stroke-width="0.75"/>
<text x="180" y="211" text-anchor="middle" font-family="system-ui,sans-serif" font-size="11" font-weight="500" fill="#38bdf8">S3 Bucket</text>
<text x="180" y="197" text-anchor="middle" font-family="system-ui,sans-serif" font-size="8" fill="#64748b">Static hosting</text>
<rect x="280" y="190" width="160" height="34" rx="6" fill="#1e293b" stroke="#334155" stroke-width="0.75"/>
<text x="360" y="211" text-anchor="middle" font-family="system-ui,sans-serif" font-size="11" font-weight="500" fill="#fbbf24">API Gateway</text>
<text x="360" y="197" text-anchor="middle" font-family="system-ui,sans-serif" font-size="8" fill="#64748b">REST API</text>
<rect x="340" y="190" width="160" height="34" rx="6" fill="none"/>
<line x1="360" y1="224" x2="360" y2="250" stroke="#475569" stroke-width="1"/>
<rect x="280" y="250" width="160" height="34" rx="6" fill="#1e293b" stroke="url(#pb-accent)" stroke-width="0.75"/>
<text x="360" y="271" text-anchor="middle" font-family="system-ui,sans-serif" font-size="11" font-weight="500" fill="#fbbf24">Lambda</text>
<text x="360" y="258" text-anchor="middle" font-family="system-ui,sans-serif" font-size="8" fill="#64748b">Serverless functions</text>
<line x1="280" y1="267" x2="180" y2="290" stroke="#475569" stroke-width="1"/>
<line x1="360" y1="284" x2="360" y2="300" stroke="#475569" stroke-width="1"/>
<line x1="440" y1="267" x2="520" y2="290" stroke="#475569" stroke-width="1"/>
<rect x="100" y="290" width="160" height="34" rx="6" fill="#1e293b" stroke="#334155" stroke-width="0.75"/>
<text x="180" y="311" text-anchor="middle" font-family="system-ui,sans-serif" font-size="11" font-weight="500" fill="#a78bfa">Cognito</text>
<text x="180" y="298" text-anchor="middle" font-family="system-ui,sans-serif" font-size="8" fill="#64748b">Auth</text>
<rect x="280" y="300" width="160" height="34" rx="6" fill="#1e293b" stroke="#334155" stroke-width="0.75"/>
<text x="360" y="321" text-anchor="middle" font-family="system-ui,sans-serif" font-size="11" font-weight="500" fill="#34d399">DynamoDB</text>
<text x="360" y="308" text-anchor="middle" font-family="system-ui,sans-serif" font-size="8" fill="#64748b">Database</text>
<rect x="460" y="290" width="120" height="34" rx="6" fill="#1e293b" stroke="#334155" stroke-width="0.75"/>
<text x="520" y="311" text-anchor="middle" font-family="system-ui,sans-serif" font-size="11" font-weight="500" fill="#38bdf8">S3</text>
<text x="520" y="298" text-anchor="middle" font-family="system-ui,sans-serif" font-size="8" fill="#64748b">Exercises</text>
<rect x="20" y="108" width="60" height="20" rx="4" fill="#f59e0b" fill-opacity="0.15"/>
<text x="50" y="122" text-anchor="middle" font-family="system-ui,sans-serif" font-size="9" font-weight="600" fill="#fbbf24">AWS</text>
</svg>