<svg width="600" height="340" viewBox="0 0 600 340" xmlns="http://www.w3.org/2000/svg" style="background:#0f172a;border-radius:12px">
<defs>
<linearGradient id="uc-accent" x1="0" y1="0" x2="1" y2="0">
<stop offset="0%" stop-color="#0ea5e9"/>
<stop offset="100%" stop-color="#06b6d4"/>
</linearGradient>
</defs>
<text x="300" y="32" text-anchor="middle" font-family="system-ui,sans-serif" font-size="13" font-weight="600" fill="#94a3b8" letter-spacing="2">ARCHITECTURE</text>
<rect x="230" y="50" width="140" height="38" rx="6" fill="#1e293b" stroke="#334155" stroke-width="0.75"/>
<text x="300" y="63" text-anchor="middle" font-family="system-ui,sans-serif" font-size="9" fill="#64748b">Browser</text>
<text x="300" y="78" text-anchor="middle" font-family="system-ui,sans-serif" font-size="12" font-weight="500" fill="#e2e8f0">Union Member</text>
<line x1="300" y1="88" x2="300" y2="110" stroke="#475569" stroke-width="1"/>
<rect x="150" y="110" width="300" height="34" rx="6" fill="#1e293b" stroke="url(#uc-accent)" stroke-width="0.75"/>
<text x="300" y="131" text-anchor="middle" font-family="system-ui,sans-serif" font-size="12" font-weight="500" fill="#67e8f9">app.unioncase.org (Vercel)</text>
<line x1="200" y1="144" x2="140" y2="180" stroke="#475569" stroke-width="1"/>
<line x1="400" y1="144" x2="460" y2="180" stroke="#475569" stroke-width="1"/>
<rect x="40" y="180" width="200" height="70" rx="6" fill="#1e293b" stroke="#334155" stroke-width="0.75"/>
<text x="140" y="200" text-anchor="middle" font-family="system-ui,sans-serif" font-size="11" font-weight="600" fill="#a78bfa">React PWA</text>
<text x="140" y="216" text-anchor="middle" font-family="system-ui,sans-serif" font-size="10" fill="#94a3b8">Progressive Web App</text>
<text x="140" y="230" text-anchor="middle" font-family="system-ui,sans-serif" font-size="10" fill="#94a3b8">Offline-capable</text>
<text x="140" y="244" text-anchor="middle" font-family="system-ui,sans-serif" font-size="10" fill="#94a3b8">Installable on device</text>
<rect x="360" y="180" width="200" height="70" rx="6" fill="#1e293b" stroke="#334155" stroke-width="0.75"/>
<text x="460" y="200" text-anchor="middle" font-family="system-ui,sans-serif" font-size="11" font-weight="600" fill="#34d399">Supabase</text>
<text x="460" y="216" text-anchor="middle" font-family="system-ui,sans-serif" font-size="10" fill="#94a3b8">PostgreSQL Database</text>
<text x="460" y="230" text-anchor="middle" font-family="system-ui,sans-serif" font-size="10" fill="#94a3b8">Auth (Email / Password)</text>
<text x="460" y="244" text-anchor="middle" font-family="system-ui,sans-serif" font-size="10" fill="#94a3b8">Row Level Security</text>
<line x1="140" y1="250" x2="140" y2="285" stroke="#475569" stroke-width="1"/>
<line x1="460" y1="250" x2="460" y2="285" stroke="#475569" stroke-width="1"/>
<rect x="40" y="285" width="200" height="34" rx="6" fill="#0f172a" stroke="#334155" stroke-width="0.5" stroke-dasharray="4 3"/>
<text x="140" y="306" text-anchor="middle" font-family="system-ui,sans-serif" font-size="10" fill="#64748b">Grievance Forms + Case Tracking</text>
<rect x="360" y="285" width="200" height="34" rx="6" fill="#0f172a" stroke="#334155" stroke-width="0.5" stroke-dasharray="4 3"/>
<text x="460" y="306" text-anchor="middle" font-family="system-ui,sans-serif" font-size="10" fill="#64748b">Cases + Users + Documents</text>
<line x1="240" y1="215" x2="358" y2="215" stroke="#0ea5e9" stroke-width="0.75" stroke-dasharray="4 3"/>
<text x="300" y="210" text-anchor="middle" font-family="system-ui,sans-serif" font-size="9" fill="#0ea5e9">API calls</text>
</svg>